<svg width="50" height="30" viewBox="0 0 50 30" fill="none" xmlns="http://www.w3.org/2000/svg">
<path d="M41 1.5C41 7.46737 39 13.5 36 17.4099C32 21.5 32 24 20.5222 24C9.0444 24 9 22.1151 4.61232 17.4099C0.22463 12.7047 0 7.96737 0 2H4C4 10.5 7.4388 14.5834 7.4388 14.5834C7.4388 14.5834 10.5222 20.0027 20.5222 20.0027C30.5222 20.0027 33 14.5834 33 14.5834C33 14.5834 36.4321 8.5 36.4321 1.5H41Z" fill="#2F2105"/>
<path d="M36.4596 9.52731C36.8656 10.8568 37.6895 12.02 38.8091 12.8441C39.9286 13.6682 41.2841 14.1094 42.6742 14.102C44.0643 14.0946 45.415 13.6391 46.5258 12.8032C47.6365 11.9673 48.4481 10.7954 48.84 9.46165C49.2319 8.12787 49.1832 6.70327 48.7012 5.39935C48.2192 4.09543 47.3296 2.9817 46.1643 2.22351C44.9991 1.46533 43.6205 1.10311 42.2331 1.19062C40.8457 1.27814 39.5235 1.81073 38.4628 2.70933L40.6146 5.24924C41.1289 4.81353 41.77 4.5553 42.4427 4.51286C43.1154 4.47043 43.7838 4.64606 44.3488 5.01368C44.9138 5.3813 45.3452 5.92131 45.5789 6.55355C45.8126 7.18578 45.8362 7.87652 45.6462 8.52323C45.4561 9.16994 45.0626 9.73814 44.5241 10.1434C43.9855 10.5488 43.3306 10.7696 42.6566 10.7732C41.9825 10.7768 41.3253 10.5629 40.7825 10.1633C40.2396 9.76371 39.8401 9.19973 39.6433 8.55507L36.4596 9.52731Z" fill="#2F2105"/>
<path d="M34 1.59495C34 5.94584 32.525 10.1185 29.8995 13.1951C27.274 16.2716 23.713 18 20 18C16.287 18 12.726 16.2716 10.1005 13.1951C7.475 10.1185 6 5.94584 6 1.59495C6 1.59495 14 5.18358 20 1.59495C26 -1.99369 34 1.59495 34 1.59495Z" fill="#FF912B"/>
<path d="M38.7553 27H2.24468C1.55726 27 1 27.6716 1 28.5C1 29.3284 1.55726 30 2.24468 30H38.7553C39.4427 30 40 29.3284 40 28.5C40 27.6716 39.4427 27 38.7553 27Z" fill="#2F2105"/>
</svg>
